Patient4_TMGait_0pt7_01_right_02_EMG.mot
version=1
nRows=23
nColumns=33
inDegrees=no
endheader
time	1LAddLong	2LGlutMax	3LGlutMed	4LIliopsoas	5LSemiMemb	6LBicFemLong	7LRecFem	8LVastMed	9LVastLat	10LGasMed	11LTibAnt	12lTibPost	13LPeroneusLong	14LSol	15LExtDigLong	16LFlexDigLong	17RAddLong	18RGlutMax	19RGlutMed	20RIliopsoas	21RSemiMemb	22RBicFemLong	23RRecFem	24RVastMed	25RVastLat	26RGasMed	27RTibAnt	28RTibPost	29RPeroneusLong	30RSol	31RExtDigLong	32RFlexDigLong
2.933	0.00351	0.10071	0.13931	0.007324	0.022583	0.072174	0.20355	0.013885	0.045929	0.00824	-0.019989	0.010223	-0.28229	-0.13046	-0.056152	-0.006714	0.002441	-0.17838	-0.41824	0.052948	-0.074768	0.00351	-0.053558	-0.095673	-0.025024	-0.032196	0.24246	-0.007477	-0.16251	0.13031	-0.005035	0.002899
2.934	0.013428	0.075226	0.13001	-0.015564	0.024414	0.072021	0.12863	-0.004272	0.045471	0.019989	-0.007172	0.010071	-0.16769	-0.13779	-0.069275	-0.011292	-0.004883	-0.16342	-0.1738	-0.013275	-0.027466	0.022278	-0.005493	-0.10208	-0.033569	-0.039063	0.21805	-0.003662	-0.2063	0.14435	-0.000153	0.003357
2.935	0.006104	0.081787	0.092468	-0.022888	0.009003	0.10544	0.088654	0.021057	0.049133	0.053864	0.004425	0.011597	-0.02121	-0.15686	-0.093384	-0.007172	-0.013885	-0.13718	-0.25742	0.1001	0.00351	-0.009918	0.047913	-0.088654	-0.031586	-0.040588	-0.095367	-0.003357	0.33066	0.070343	-0.001373	0.012054
2.936	0.003815	0.09903	0.061798	-0.004272	0.019073	-0.033875	0.099945	0.066986	0.079803	0.043335	-0.016632	0.012054	0.029602	-0.10757	-0.06012	0.005951	-0.004272	-0.12711	-0.28778	0.15198	-0.031128	0.005646	0.12009	-0.11566	-0.039825	-0.053253	-0.336	-0.003967	0.039215	0.003357	-0.004883	0.011444
2.937	0.005188	0.075684	0.044708	0.035095	0.005188	-0.066376	0.087585	-0.001221	0.15457	0.018005	-0.018311	0.016327	0.026093	-0.11169	-0.00061	-0.004425	-0.006104	-0.13245	-0.4158	0.081635	-0.028992	0.023499	0.12558	-0.07782	-0.016937	-0.074615	-0.14526	-0.00824	-0.14191	0.016479	-0.00473	0.003815
2.938	0.00351	0.033875	0.066376	0.038605	0.028076	-0.043793	0.052185	-0.020905	0.22186	0.012512	-0.052795	0.015411	-0.10941	-0.10101	0.052032	0.005646	-0.003357	-0.10269	-0.33371	0.047607	-0.031586	0.007324	0.29938	-0.050659	-0.001221	-0.087738	0.086975	-0.008545	0.10529	-0.035858	-0.004272	0.001221
2.939	0.004272	0.10117	0.062256	0.021667	0.014801	-0.037231	0.077667	0.016022	0.23956	0.021515	-0.066071	0.012207	0.14297	-0.1001	0.15671	0.003967	0.004883	-0.10956	-0.21805	0.060272	-0.028839	0.012054	0.24948	-0.076447	-0.01236	-0.09613	0.13306	0.001221	0.11032	-0.005951	-0.002441	-0.001068
2.94	-0.004883	0.10132	0.068665	-0.002441	0.010834	-0.017853	0.11322	-0.013885	0.22339	0.031433	-0.04303	0.019684	0.093536	-0.081177	0.099182	0.001373	-0.00061	-0.11002	0.039215	0.029144	-0.005493	0.022888	0.21668	-0.074005	0.001221	-0.089264	0.1178	-0.004578	0.002289	-0.023193	-0.001678	0.005646
2.941	0.002747	0.11047	0.078278	-0.004578	0.009918	-0.016937	0.19134	-0.023956	0.088959	0.013733	-0.016174	0.017548	0.10452	-0.03006	0.026703	0.008392	-0.009155	-0.13229	-0.25101	0.031128	-0.0177	0.023804	0.11047	-0.068512	0.017242	-0.055847	0.21927	-0.002594	-0.4538	0.000153	-0.001221	0.001526
2.942	-0.001984	0.12314	0.052338	-0.008392	-0.003815	0.016174	0.1973	-0.01297	-0.005951	-0.001984	-0.074921	0.012665	0.14526	-0.002747	0.043488	0.008392	-0.001526	-0.090942	-0.66361	0.038452	-0.040741	0.046844	0.041046	-0.046539	0.003204	-0.00061	0.10223	0.000153	-0.3389	0.03479	-0.003204	0.001373
2.943	-0.007019	0.13718	0.037231	0.00824	0.002899	0.03006	0.22201	-0.007172	-0.064392	0.010223	-0.047302	0.00412	0.014038	-0.00946	0.17273	0.002594	-0.013885	-0.06485	-0.9111	0.036926	-0.034332	0.038147	0.00412	-0.009003	0.015717	0.058136	0.058899	-0.003662	-0.41702	-0.022888	0	-0.005035
2.944	-0.001221	0.14984	0.10468	-0.001678	0.023651	-0.002594	0.23239	-0.006866	-0.1062	0.027771	0.07309	0.011139	-0.068512	-0.046234	0.20081	0.005188	-0.007629	-0.001373	-0.51727	0.00824	-0.022888	0.024261	-0.12146	-0.036469	0.032959	0.11765	0.032196	0.000305	0.018616	-0.066376	0	0.003204
2.945	-0.006409	0.12009	0.13397	-0.009766	0.025787	-0.003052	0.25406	-0.00061	-0.04837	0.024414	0.06073	0.016174	-0.077972	-0.032349	0.06897	0.003204	-0.005341	-0.094757	0.037689	-0.051117	-0.015106	0.027466	-0.27466	-0.0354	0.035095	0.16113	-0.036316	-0.002594	1.1522	-0.028076	-0.000916	0.008392
2.946	0.000763	0.12451	0.12634	0.003662	0.023499	-0.025482	0.25604	-0.005951	-0.009918	0.000458	-0.065308	0.014801	0.071564	-0.005035	-0.13001	0.02182	0.024719	-0.10223	0.46982	-0.27023	-0.002594	0.014038	-0.29602	-0.018616	0.016785	0.20447	-0.033417	-0.001373	0.57816	-0.024567	-0.002899	0.005493
2.947	-0.002899	0.14084	0.086365	-0.000916	0.001221	-0.010223	0.27603	0.000153	0.016479	0.015564	0.042419	0.003357	-0.062103	0.009308	-0.15915	0.007782	0.049286	-0.11078	0.82047	-0.34637	-0.006409	-0.005493	-0.36301	-0.051422	0.023499	0.23422	0.072174	-0.001984	0.005951	0.007935	-0.003967	0.006104
2.948	-0.001221	0.10529	0.090485	-0.006866	0.013733	0.017395	0.20706	0.000763	0.013275	0.045776	0.12894	0.014191	-0.12268	0.003967	-0.10025	0.009766	0.051575	-0.10574	0.64423	-0.30441	0.017853	-0.052185	-0.41229	-0.082245	0.008087	0.23941	0.099182	-0.001068	-0.33188	0.003204	-0.003052	0.005188
2.949	0.002594	0.072021	0.048523	0.003204	0.013733	0.03418	0.12466	0.007782	-0.003357	0.030365	0.11231	0.023499	0.15595	0.027466	0.020294	-0.000305	0.049744	-0.15732	0.085754	-0.16907	0.044708	-0.094757	-0.3746	-0.074921	0.021667	0.23209	0.057373	-0.005798	-0.55862	0.001526	-0.006409	0.005951
2.95	0.002594	0.052948	0.098724	0.021362	0.018311	0.036926	0.13687	0.010681	-0.016479	0.023956	0.062561	0.016632	0.020294	-0.022583	0.13565	-0.00824	0.018616	-0.11826	-0.10315	0.027008	-0.10513	-0.10178	-0.24017	-0.03006	0.041809	0.20813	0.055389	-0.001984	-0.28793	-0.016785	-0.003204	0.001984
2.951	-0.00061	0.037689	0.12131	0.007629	0.024109	-0.004425	0.11856	0.016022	0.051422	0.014038	-0.057068	0.019989	-0.13626	-0.039063	0.037994	-0.008087	0.04303	-0.15717	0.075378	0.33264	-0.081177	-0.068512	-0.13947	-0.026398	0.023193	0.14694	0.040588	-0.001984	-0.031738	-0.028687	-0.005035	0.019684
2.952	0.00351	0.050201	0.1091	0.003967	0.023651	-0.010376	0.14572	0.00885	0.061798	-0.040283	-0.1355	0.016632	0.11017	-0.067139	0.096588	-0.015564	0.031586	-0.099335	0.31387	0.53223	-0.20035	0.092926	-0.11536	-0.048828	0.019226	0.09552	0.037689	-0.002747	0.088348	-0.010529	-0.003815	0.022278
2.953	0.00885	0.026093	0.04425	0.013885	0.024109	-0.018005	0.22995	-0.001373	0.086975	-0.024261	-0.17075	0.015869	-0.020752	-0.016022	0.088806	0.006409	-0.034332	-0.093384	0.19333	0.44876	-0.10712	0.20264	-0.16007	-0.00824	0.021667	0.053101	0.040588	-0.001984	0.24139	0.037994	-0.003662	0.014038
2.954	0.005493	0.027161	0.023651	0.004883	0.026703	-0.037537	0.26871	-0.011139	0.060883	0.018005	0.018463	0.008698	0.16052	-0.011902	0.53848	-0.010529	-0.06012	-0.089569	0.43976	0.25635	-0.093079	0.24429	-0.10117	0.009613	0.013428	0.025177	0.05722	-0.001068	0.28091	0.000305	-0.005646	0.008392
2.955	-0.00061	0.03891	0.073242	0	0.004425	-0.031891	0.27084	-0.00412	0.0383	0.052032	0.17441	0.008392	0.004272	-0.008545	-0.3894	0.001678	-0.061188	-0.088348	0.17029	0.081635	-0.14008	0.28381	-0.080109	0.028381	0.006409	0.002899	0.06958	-0.001678	0.11795	-0.074921	-0.004272	-0.001678
